# xmcd
#
# Track frame offsets:
#	225
#	19072
#	35297
#	50503
#	66235
#	83519
#	95057
#	107665
#	118726
#	128426
#	137737
#	154083
#	164033
#	173254
#	183268
#	191948
#
# Disc length: 2712 seconds
#
# Revision: 3
# Processed by: cddbd v1.5.2PL0 Copyright (c) Steve Scherf et al.
# Submitted via: audiograbber 1.83.01
#
DISCID=d20a9510
DTITLE=Verschiedene - Deutsche Country and Trucker Songs
DYEAR=1900
DGENRE=Country
TTITLE0=Western Starlights - Der Highway Und Das Cockpit
TTITLE1=Gudrun Lange and Kactus - Mitten Im Herz     
TTITLE2=Ralf Paulsen - Es Hängt Ein Pferdehalfter An Der Wand
TTITLE3=Greyhounds - Albatros         
TTITLE4=New Mavericks - Unter Freunden     
TTITLE5=Fred Rai - Geisterreiter           
TTITLE6=Hans Zuber and Band - Diesel Liesel 
TTITLE7=Andreas - Am Rande Der Prärie
TTITLE8=Martin Lauer - Die Letzte Rose Der Prärie
TTITLE9=Bill Ramsey - Der Tramp
TTITLE10=Timmeltruck - Truck Durch Südtirol
TTITLE11=Dieter-Thomas Heck - Das Wilde Leben Im Wilden Westen
TTITLE12=Mary Roos - 7.000 Rinder
TTITLE13=Sixtons - Blue River
TTITLE14=Florian Haid - Was Ein Cowboy Alles Schafft
TTITLE15=Benny Maro - Rosalie Aus Tennessee
EXTD=
EXTT0=
EXTT1=
EXTT2=
EXTT3=
EXTT4=
EXTT5=
EXTT6=
EXTT7=
EXTT8=
EXTT9=
EXTT10=
EXTT11=
EXTT12=
EXTT13=
EXTT14=
EXTT15=
PLAYORDER=
